<svg width="91" height="41" viewBox="0 0 91 41" fill="none" xmlns="http://www.w3.org/2000/svg">
<g filter="url(#filter0_d_148_4)">
<path d="M85.2124 14.7563L68.2371 11.3157L73.745 27.7371L85.2124 14.7563ZM3.00167 3.12659C4.46258 4.34344 5.89659 5.5039 7.3077 6.60866L9.15705 4.24648C7.77199 3.16212 6.36159 2.02083 4.92167 0.821471L3.00167 3.12659ZM16.3066 13.0822C19.6115 15.2282 22.8354 17.0434 26.0405 18.5362L27.3071 15.8167C24.2477 14.3917 21.1465 12.648 17.9403 10.5661L16.3066 13.0822ZM36.6187 22.3003C40.2579 23.1933 43.9453 23.6877 47.768 23.805L47.86 20.8065C44.2404 20.6953 40.7621 20.228 37.3337 19.3868L36.6187 22.3003ZM58.9484 23.1592C62.4196 22.6827 66.0384 21.9581 69.8554 21.0008L69.1256 18.0909C65.395 19.0266 61.8849 19.728 58.5404 20.187L58.9484 23.1592Z" fill="#BA087B"/>
</g>
<defs>
<filter id="filter0_d_148_4" x="0.00170898" y="0.821472" width="90.2107" height="39.9156" filterUnits="userSpaceOnUse" color-interpolation-filters="sRGB">
<feFlood flood-opacity="0" result="BackgroundImageFix"/>
<feColorMatrix in="SourceAlpha" type="matrix" values="0 0 0 0 0 0 0 0 0 0 0 0 0 0 0 0 0 0 127 0" result="hardAlpha"/>
<feOffset dx="1" dy="9"/>
<feGaussianBlur stdDeviation="2"/>
<feComposite in2="hardAlpha" operator="out"/>
<feColorMatrix type="matrix" values="0 0 0 0 0 0 0 0 0 0 0 0 0 0 0 0 0 0 0.31 0"/>
<feBlend mode="normal" in2="BackgroundImageFix" result="effect1_dropShadow_148_4"/>
<feBlend mode="normal" in="SourceGraphic" in2="effect1_dropShadow_148_4" result="shape"/>
</filter>
</defs>
</svg>
